<?xml version="1.0" encoding="utf-8"?>
<!-- Generator: Adobe Illustrator 22.0.1, SVG Export Plug-In . SVG Version: 6.00 Build 0)  -->
<svg version="1.2" baseProfile="tiny" xmlns="http://www.w3.org/2000/svg" xmlns:xlink="http://www.w3.org/1999/xlink" x="0px"
	 y="0px" viewBox="0 0 34 35" xml:space="preserve">
<g id="Ellipse_3_1_">
	<g id="Ellipse_3">
		<ellipse fill-rule="evenodd" fill="#AE32A3" cx="16.9" cy="17.3" rx="16.8" ry="17.1"/>
	</g>
</g>
<g id="Objet_dynamique_vectoriel_xA0_Image_1_">
	<path id="instagram_1_" fill="#FFFFFF" d="M13.5,17.3c0-1.8,1.5-3.3,3.3-3.3c1.8,0,3.3,1.5,3.3,3.3s-1.5,3.3-3.3,3.3
		S13.5,19.1,13.5,17.3 M11.7,17.3c0,2.8,2.3,5.1,5.1,5.1s5.1-2.3,5.1-5.1c0-2.8-2.3-5.1-5.1-5.1S11.7,14.5,11.7,17.3 M21,12
		c0,0.7,0.5,1.2,1.2,1.2c0.7,0,1.2-0.5,1.2-1.2c0-0.7-0.5-1.2-1.2-1.2C21.5,10.8,21,11.3,21,12 M12.8,25.4c-1,0-1.5-0.2-1.9-0.3
		c-0.9-0.3-1.6-1-1.9-1.9c-0.6-1.5-0.4-8.8-0.3-9.9c0.1-1.1,0.3-2.2,1.1-3c1-1,2.3-1.5,11.1-1.1c1.1,0.1,2.2,0.3,3,1.1
		c1,1,1.5,2.3,1.1,11.1c0,1-0.2,1.5-0.3,1.9C23.7,25.5,21.7,25.8,12.8,25.4 M12.7,7.4C11.1,7.4,9.7,7.8,8.5,9
		c-1.1,1.1-1.5,2.6-1.6,4.2c0,1-0.3,8.7,0.5,10.7c0.5,1.4,1.6,2.4,2.9,2.9c0.6,0.2,1.4,0.4,2.4,0.5c8.9,0.4,12.2,0.2,13.6-3.4
		c0.2-0.6,0.4-1.4,0.5-2.4c0.4-8.9-0.1-10.9-1.6-12.4C23.9,7.7,22.5,6.9,12.7,7.4"/>
</g>
</svg>
