<?xml version="1.0" encoding="utf-8"?>
<!-- Generator: Adobe Illustrator 22.0.1, SVG Export Plug-In . SVG Version: 6.00 Build 0)  -->
<svg version="1.2" baseProfile="tiny" xmlns="http://www.w3.org/2000/svg" xmlns:xlink="http://www.w3.org/1999/xlink" x="0px"
	 y="0px" viewBox="0 0 34 35" xml:space="preserve">
<g id="Ellipse_3_1_">
	<g id="Ellipse_3">
		<ellipse fill-rule="evenodd" fill="#FF0000" cx="17" cy="17.5" rx="16.8" ry="17.1"/>
	</g>
</g>
<g id="Objet_dynamique_vectoriel_xA0_Image_1_">
	<path id="youtube_2_" fill="#FFFFFF" d="M26.1,12.2c-0.3-0.5-0.9-0.8-1.6-0.9c-1.8-0.3-13.3-0.3-15.2,0c-0.5,0.1-0.9,0.3-1.3,0.7
		C6.5,13.4,7,21.5,7.4,22.8c0.2,0.6,0.4,1,0.6,1.2c0.3,0.4,0.8,0.6,1.4,0.7c1.5,0.3,9.3,0.5,15.2,0c0.5-0.1,1-0.3,1.4-0.7
		C27.4,22.5,27.3,14.1,26.1,12.2z M15,20.6c0-1.9,0-3.8,0-5.6c2,0.9,3.5,1.8,5.4,2.8C18.9,18.6,17,19.6,15,20.6z"/>
</g>
</svg>
